<svg width="40.000000" height="40.000000" viewBox="0 0 40 40" fill="none" xmlns="http://www.w3.org/2000/svg" xmlns:xlink="http://www.w3.org/1999/xlink">
	<desc>
			Created with Pixso.
	</desc>
	<defs>
		<clipPath id="clip1_23">
			<rect id="omega-sign-svgrepo-com 1" width="40.000000" height="40.000000" fill="white" fill-opacity="0"/>
		</clipPath>
	</defs>
	<rect id="omega-sign-svgrepo-com 1" width="40.000000" height="40.000000" fill="#FFFFFF" fill-opacity="0"/>
	<g clip-path="url(#clip1_23)">
		<path id="Vector" d="M39.19 34.59L34.95 34.59C37.76 30.86 39.31 26.2 39.31 21.46C39.31 9.99 30.65 0.66 19.99 0.66C9.34 0.66 0.68 9.99 0.68 21.46C0.68 26.2 2.23 30.86 5.04 34.59L0.8 34.59C0.36 34.59 0 34.96 0 35.4L0 38.52C0 38.97 0.36 39.33 0.8 39.33L12.36 39.33C12.81 39.33 13.17 38.97 13.17 38.52L13.17 35.05C13.17 34.85 13.1 34.67 12.98 34.52L12.93 34.47C12.89 34.42 12.83 34.37 12.78 34.33C8.8 31.57 6.33 26.64 6.33 21.46C6.33 13.11 12.46 6.31 19.99 6.31C27.53 6.31 33.66 13.11 33.66 21.46C33.66 26.66 31.17 31.6 27.17 34.35C26.95 34.51 26.82 34.76 26.82 35.02L26.82 38.52C26.82 38.97 27.18 39.33 27.63 39.33L39.19 39.33C39.63 39.33 40 38.97 40 38.52L40 35.4C40 34.96 39.63 34.59 39.19 34.59Z" fill="#FFFFFF" fill-opacity="1.000000" fill-rule="nonzero"/>
	</g>
</svg>
